PathFileType	4	(X/Y/Z)	C:/Users/opensim2020/Desktop/walking_exp_matlab/subject01_walking15_straight_04.trc																																																																																																																															
DataRate	CameraRate	NumFrames	NumMarkers	Units	OrigDataRate	OrigDataStartFrame	OrigNumFrames																																																																																																																											
100	100	4	43	mm	100	2159	105																																																																																																																											
Frame#	Time	LFHD			RFHD			LBHD			RBHD			C7			T10			CLAV			STRN			RBAK			LSHO			LUPA			LELB			LFRM			LWRA			LWRB			LFIN			RSHO			RUPA			RELB			RFRM			RWRA			RWRB			RFIN			LASI			RASI			LPSI			RPSI			LTHI			LKNE			LTIB			LANK			LHEE			LTOE			RTHI			RKNE			RTIB			RANK			RHEE			RTOE			*39			*40			*41			*42		
		X1	Y1	Z1	X2	Y2	Z2	X3	Y3	Z3	X4	Y4	Z4	X5	Y5	Z5	X6	Y6	Z6	X7	Y7	Z7	X8	Y8	Z8	X9	Y9	Z9	X10	Y10	Z10	X11	Y11	Z11	X12	Y12	Z12	X13	Y13	Z13	X14	Y14	Z14	X15	Y15	Z15	X16	Y16	Z16	X17	Y17	Z17	X18	Y18	Z18	X19	Y19	Z19	X20	Y20	Z20	X21	Y21	Z21	X22	Y22	Z22	X23	Y23	Z23	X24	Y24	Z24	X25	Y25	Z25	X26	Y26	Z26	X27	Y27	Z27	X28	Y28	Z28	X29	Y29	Z29	X30	Y30	Z30	X31	Y31	Z31	X32	Y32	Z32	X33	Y33	Z33	X34	Y34	Z34	X35	Y35	Z35	X36	Y36	Z36	X37	Y37	Z37	X38	Y38	Z38	X39	Y39	Z39	X40	Y40	Z40	X41	Y41	Z41	X42	Y42	Z42	X43	Y43	Z43
																																																																																																																																		
79	0.78	230.1386	1659.61719	963.77472	287.75745	1664.89343	1061.57251	123.38615	1627.82068	1020.17255	182.3273	1632.86768	1125.16675	86.04729	1428.69421	1054.16113	47.56012	1134.59033	1065.68201	230.37146	1361.34546	1041.78821	273.04166	1206.68701	1035.28772	35.16732	1236.39319	1134.28308	153.93988	1394.52246	887.69763	110.69756	1215.99011	803.15912	100.30267	1061.2262	796.85712	179.75798	973.3587	776.09937	301.95117	910.00177	793.9693	255.48137	877.7536	776.18542	327.57431	839.50592	761.95471	178.74954	1393.74084	1197.46057	107.90369	1201.55725	1304.2887	99.49377	1077.68396	1312.19727	111.81971	960.09564	1347.24744	173.08369	831.05865	1330.97571	132.38321	840.72522	1371.46521	160.30728	759.36426	1378.28357	215.01273	925.83612	949.43268	235.80653	935.79089	1165.04529	36.51863	934.40619	1018.79651	50.58694	944.41748	1163.77234	221.12708	591.41077	890.58826	220.93555	458.64423	897.70203	72.65732	351.58743	904.76129	-94.37123	213.38362	969.74341	-135.50757	227.24254	1030.01831	-40.43171	75.61788	973.91901	223.6936	600.3634	1225.68225	254.07129	444.16415	1197.20947	196.27635	276.28049	1212.47437	149.50665	76.15709	1166.42114	91.60269	41.08052	1124.41357	286.47421	33.91982	1149.76489	271.72974	1699.05444	1043.76294	-1973.19495	1023.51147	3102.03125	-2012.60437	1022.17896	3140.64355	NaN	NaN	NaN
80	0.79	243.64122	1660.47107	962.55902	301.77011	1665.64148	1060.05334	137.13754	1629.2688	1020.73126	196.55812	1633.94226	1124.18262	99.51317	1429.97058	1053.77856	60.61837	1135.88232	1065.78955	243.50119	1362.43884	1040.60669	285.88809	1207.64368	1034.23486	48.70928	1237.86938	1134.56213	166.28311	1395.52637	886.8916	121.29024	1216.89648	802.94684	109.27346	1062.3396	797.7699	185.2068	971.33234	776.64435	305.32117	903.2804	792.75134	256.84656	872.76825	776.84985	327.00851	831.00073	761.42584	192.7392	1395.22681	1196.49182	124.51981	1202.67175	1304.30908	117.69318	1078.42029	1312.47778	134.1295	960.76141	1346.6554	200.03275	834.30005	1329.39893	159.44235	841.98102	1369.60498	190.4745	761.87543	1376.0896	228.20721	927.52576	949.77863	248.49652	936.87354	1165.21533	49.60894	935.9267	1017.7674	63.12453	945.84332	1162.57959	241.20171	594.50049	889.05261	244.26393	461.58078	896.67175	98.324	352.03683	905.70355	-62.6946	207.35893	972.02917	-104.72935	218.34207	1032.85803	-0.14392	74.54667	972.17645	231.91614	600.50568	1225.14014	258.51038	443.64105	1196.52478	198.66945	276.52039	1212.04053	149.84305	76.58115	1166.25183	91.68891	41.92789	1124.42383	286.58539	33.85785	1149.70923	285.73813	1699.96838	1042.26721	-1973.19043	1023.52081	3101.96069	-2012.51062	1022.02802	3140.64087	NaN	NaN	NaN
81	0.8	257.03192	1661.10168	961.13397	315.67615	1666.32458	1058.3656	150.77368	1630.16992	1019.83905	210.744	1634.86023	1122.99536	112.81319	1431.14551	1053.61926	73.67627	1136.98206	1065.75122	256.62079	1363.34619	1039.49438	298.80148	1208.49377	1033.27734	62.2892	1239.21594	1134.92285	178.71181	1396.33008	886.12555	132.20651	1217.70398	802.73212	118.1861	1063.41663	798.35687	190.46602	969.52264	777.18903	308.24289	896.76715	791.41431	258.16968	868.08405	777.57391	325.87015	822.98346	760.88922	206.62274	1396.70801	1195.65918	140.84261	1203.75696	1304.23706	135.78366	1079.14441	1312.67285	156.48438	961.5899	1345.89172	226.79466	837.71674	1327.29712	186.37999	843.60138	1367.83337	220.70795	764.98193	1373.73877	241.18105	929.07422	950.14612	261.20483	937.80878	1165.2489	62.59541	937.16858	1016.54004	75.65927	947.17535	1161.19409	260.84338	597.47308	887.58588	266.99985	464.5939	895.73474	124.04165	351.4957	906.56775	-30.66896	200.71292	973.45746	-73.10867	208.34845	1035.24878	40.02966	72.50539	970.26996	239.48946	601.09375	1224.45618	262.61627	443.53879	1195.77112	200.66008	276.50201	1211.46631	150.1611	77.0778	1166.07568	91.65971	42.84779	1124.6991	286.69058	33.83882	1149.68616	299.68616	1700.52063	1040.49817	-1973.18591	1023.81445	3101.8772	-2012.49377	1022.01831	3140.73047	NaN	NaN	NaN
82	0.81	270.41843	1661.66406	959.50568	329.48566	1666.9292	1056.40259	164.38495	1630.91467	1018.80133	224.83162	1635.68323	1121.66284	126.20749	1432.01953	1052.64929	86.63943	1137.96765	1065.76978	269.6377	1364.17163	1038.30518	311.55759	1209.24341	1032.21777	75.90973	1240.43945	1135.26282	191.09206	1397.02783	885.29333	143.24211	1218.26123	802.4621	127.72408	1064.26233	799.78497	195.6414	967.9552	777.72357	310.82446	890.33124	790.10834	259.10492	863.77386	778.54102	324.61575	815.34479	760.30298	220.52582	1397.90137	1194.375	156.9697	1204.81726	1304.07202	153.93855	1079.68542	1312.55188	178.87592	962.49506	1344.96765	253.7359	841.7807	1324.91406	213.36682	845.62677	1365.69543	251.0417	768.52167	1370.93884	254.62592	930.68958	950.01178	273.79858	938.63159	1165.01135	75.48576	938.30035	1015.3728	88.26447	948.54279	1159.91748	279.98364	600.50195	886.1803	289.26907	467.83704	894.88586	150.13943	350.14874	907.17529	2.50086	192.92258	975.23785	-40.26482	197.48119	1037.29773	80.06633	69.89851	967.68494	246.4222	601.44977	1223.78345	266.3168	442.80927	1195.61304	202.54744	276.99969	1211.53491	150.53992	77.62709	1166.01758	91.46349	43.67113	1124.14063	286.82739	33.80562	1149.62927	313.43942	1701.2666	1038.63635	-1973.21533	1023.76373	3101.86694	-2012.5426	1022.00909	3140.72144	NaN	NaN	NaN
